<?xml version="1.0" encoding="UTF-8"?>
<svg width="24px" height="24px" viewBox="0 0 24 24" version="1.1" xmlns="http://www.w3.org/2000/svg" xmlns:xlink="http://www.w3.org/1999/xlink">
    <!-- Generator: sketchtool 50 (54983) - http://www.bohemiancoding.com/sketch -->
    <title>1279C1CD-8CE0-4C76-8E89-10C174CA6D01</title>
    <desc>Created with sketchtool.</desc>
    <defs></defs>
    <g id="z" stroke="none" stroke-width="1" fill="none" fill-rule="evenodd">
        <g id="icon-/-comments">
            <g id="ic_textsms">
                <g id="Icon-24px">
                    <path d="M20,2 L4,2 C2.9,2 2.01,2.9 2.01,4 L2,22 L6,18 L20,18 C21.1,18 22,17.1 22,16 L22,4 C22,2.9 21.1,2 20,2 L20,2 Z M9,11 L7,11 L7,9 L9,9 L9,11 L9,11 Z M13,11 L11,11 L11,9 L13,9 L13,11 L13,11 Z M17,11 L15,11 L15,9 L17,9 L17,11 L17,11 Z" id="Shape" fill="#003948"></path>
                    <polygon id="Shape" points="0 0 24 0 24 24 0 24"></polygon>
                </g>
            </g>
        </g>
    </g>
</svg>