<?xml version="1.0" encoding="UTF-8"?>
<svg width="216px" height="49px" viewBox="0 0 216 49" version="1.1" xmlns="http://www.w3.org/2000/svg" xmlns:xlink="http://www.w3.org/1999/xlink">
    <!-- Generator: sketchtool 50 (54983) - http://www.bohemiancoding.com/sketch -->
    <title>E283AE51-5465-4B17-BB30-618D96C31E30</title>
    <desc>Created with sketchtool.</desc>
    <defs></defs>
    <g id="z" stroke="none" stroke-width="1" fill="none" fill-rule="evenodd">
        <g id="logo-/-zuellig" fill="#FFFFFF">
            <g id="Page-1">
                <path d="M44.171,23.491 L36.341,23.491 C36.293,21.682 36.07,19.897 35.687,18.159 L41.058,13.395 C42.915,16.34 44.039,19.79 44.171,23.491 Z M3.49,24.95 L11.322,24.95 C11.369,26.746 11.587,28.515 11.966,30.241 L6.584,35.015 C4.739,32.076 3.621,28.639 3.49,24.95 Z M41.032,35.091 L34.165,35.091 C35.495,31.912 36.247,28.478 36.338,24.95 L44.171,24.95 C44.039,28.669 42.906,32.135 41.032,35.091 Z M12.78,24.95 L17.927,24.95 L13.229,29.119 C12.974,27.754 12.82,26.36 12.78,24.95 Z M15.073,13.364 L23.09,13.364 L23.085,20.376 L19.573,23.491 L12.78,23.491 C12.878,19.953 13.673,16.518 15.073,13.364 Z M6.624,13.364 L13.488,13.364 C12.162,16.539 11.413,19.967 11.322,23.491 L3.49,23.491 C3.622,19.777 4.753,16.315 6.624,13.364 Z M28.144,4.33 C31.292,5.013 34.173,6.43 36.598,8.388 L33.243,11.364 C31.92,8.785 30.209,6.408 28.144,4.33 Z M24.552,11.903 L24.559,3.886 C24.903,3.897 25.248,3.92 25.589,3.947 C28.196,6.193 30.324,8.9 31.885,11.903 L24.552,11.903 Z M30.99,13.364 L24.545,19.079 L24.55,13.364 L30.99,13.364 Z M14.144,11.903 L7.638,11.903 C10.527,8.118 14.708,5.372 19.522,4.33 C17.312,6.552 15.5,9.114 14.144,11.903 Z M22.077,3.947 C22.415,3.92 22.757,3.897 23.099,3.886 L23.093,11.903 L15.777,11.903 C17.337,8.9 19.465,6.193 22.077,3.947 Z M32.574,35.091 L24.535,35.091 L24.536,28.053 L28.032,24.95 L34.881,24.95 C34.783,28.492 33.983,31.931 32.574,35.091 Z M33.506,36.55 L40.02,36.55 C37.123,40.341 32.935,43.089 28.111,44.124 C30.328,41.905 32.148,39.34 33.506,36.55 Z M24.531,36.55 L31.871,36.55 C30.307,39.554 28.174,42.261 25.557,44.504 C25.215,44.533 24.87,44.553 24.523,44.564 L24.531,36.55 Z M16.607,35.091 L23.079,29.347 L23.073,35.091 L16.607,35.091 Z M15.791,36.55 L23.071,36.55 L23.064,44.564 C22.745,44.551 22.423,44.531 22.106,44.504 C19.49,42.261 17.355,39.554 15.791,36.55 Z M14.406,37.041 C15.737,39.641 17.465,42.035 19.551,44.124 C16.373,43.442 13.472,42.013 11.035,40.034 L14.406,37.041 Z M34.881,23.491 L29.678,23.491 L34.424,19.28 C34.684,20.66 34.842,22.067 34.881,23.491 Z M47.623,7.57 L47.623,0 L0.046,0 L0.046,24.612 L2.021,24.612 C2.097,28.799 3.354,32.7 5.479,35.998 L0,40.859 L0,48.453 L47.571,48.453 L47.571,23.82 L45.639,23.82 C45.562,19.623 44.296,15.715 42.161,12.414 L47.623,7.57 Z" id="Fill-1"></path>
                <path d="M78.1691,22.1365 L60.1281,22.1365 L59.5051,21.2095 L74.9811,3.3165 C73.7731,3.0745 72.5371,2.9535 71.2661,2.9535 C66.8711,2.9535 64.1271,4.1235 61.6181,7.4915 L60.5131,7.1295 L62.8881,1.6845 L79.2151,1.6845 L79.5361,2.8075 L64.1601,20.6125 L68.3641,20.9395 C73.2171,20.9395 77.3191,20.0435 79.5361,15.6255 L80.5481,15.9835 L78.1691,22.1365 Z" id="Fill-3"></path>
                <path d="M107.5079,1.7073 L107.5079,2.6123 L107.2129,2.6123 C106.3329,2.6763 105.4239,2.7923 104.9649,3.6053 C104.5679,4.2963 104.6099,5.6163 104.6099,6.3943 L104.6099,15.6763 C104.6099,17.9893 104.4039,19.6063 102.3299,21.1423 C100.5709,22.3993 98.1269,22.6713 95.9449,22.6713 C93.6949,22.6713 91.4149,22.4623 89.4949,21.2873 C87.0829,19.8193 86.7609,18.1983 86.7609,15.7323 L86.7609,6.3943 C86.7609,4.3863 86.9569,2.8303 84.2819,2.6443 L83.7649,2.6123 L83.7649,1.7073 L93.2369,1.7073 L93.2369,2.6123 L92.7839,2.6443 C91.8729,2.6763 90.8289,2.7063 90.3449,3.6053 C89.9449,4.2963 90.0179,5.6163 90.0179,6.3943 L90.0179,13.6923 C90.0179,15.3433 89.7899,17.7173 90.7969,19.0993 C92.0039,20.7833 94.3489,21.1663 96.4059,21.1663 C98.2859,21.1663 100.6689,20.7203 101.8029,19.1613 C102.8789,17.6893 102.7889,15.3433 102.7889,13.6053 L102.7889,6.3943 C102.7889,4.3243 102.9809,2.7603 100.2109,2.6443 L99.5649,2.6123 L99.5649,1.7073 L107.5079,1.7073 Z" id="Fill-5"></path>
                <path d="M131.2511,7.0701 L130.2161,7.4621 C127.5691,4.3931 124.8661,2.9541 120.5671,2.9541 C119.6521,2.9541 118.1261,2.9811 117.3761,3.5261 C116.5631,4.0961 116.5301,4.9681 116.5301,5.8351 L116.5301,10.4611 L118.7121,10.4611 C122.0041,10.4611 122.6171,9.7371 123.0051,6.7621 L124.1201,6.7621 L124.1201,15.7421 L123.0051,15.7421 C122.9131,14.8121 122.7491,13.9121 122.1601,13.1331 C121.3231,11.9361 120.0801,11.8671 118.6471,11.8671 L116.5301,11.8671 L116.5301,17.8471 C116.5301,18.4441 116.6001,19.4451 117.0151,19.9431 C117.6981,20.7831 119.2961,20.8491 120.3381,20.8491 C125.3591,20.8491 128.3181,18.9581 131.2511,15.3231 L132.2961,15.7421 L129.3241,22.1361 L110.3431,22.1361 L110.3431,21.2411 L110.6701,21.2101 C111.5441,21.1191 112.4851,21.0901 112.9451,20.2521 C113.3381,19.5611 113.2711,18.2391 113.2711,17.4531 L113.2711,6.3731 C113.2711,4.3931 113.4991,2.8071 110.8281,2.6231 L110.3431,2.5901 L110.3431,1.6851 L129.0031,1.6851 L131.2511,7.0701 Z" id="Fill-7"></path>
                <path d="M152.6183,22.1365 L135.7443,22.1365 L135.7443,21.2405 L136.0353,21.2095 C136.8813,21.1755 137.7993,21.0585 138.2483,20.2525 C138.6533,19.5615 138.5773,18.2395 138.5773,17.4535 L138.5773,6.4065 C138.5773,4.4225 138.8033,2.8325 136.1733,2.6235 L135.7443,2.5905 L135.7443,1.6845 L144.9933,1.6845 L144.9933,2.5905 L144.5703,2.6235 C143.6553,2.6835 142.6893,2.7415 142.1913,3.5855 C141.7713,4.3005 141.8323,5.5925 141.8323,6.4065 L141.8323,18.0915 C141.8323,18.6545 141.8323,19.6815 142.1633,20.1585 C142.5903,20.8495 143.8893,21.0035 144.6343,21.0035 C148.9063,21.0035 152.1003,18.4795 154.3073,15.3535 L155.2183,15.7425 L152.6183,22.1365 Z" id="Fill-9"></path>
                <path d="M174.111,22.1365 L157.24,22.1365 L157.24,21.2405 L157.534,21.2095 C158.387,21.1755 159.293,21.0585 159.745,20.2525 C160.138,19.5615 160.072,18.2395 160.072,17.4535 L160.072,6.4065 C160.072,4.4225 160.304,2.8325 157.665,2.6235 L157.24,2.5905 L157.24,1.6845 L166.488,1.6845 L166.488,2.5905 L166.07,2.6235 C165.153,2.6835 164.179,2.7415 163.683,3.5855 C163.264,4.3005 163.327,5.5925 163.327,6.4065 L163.327,18.0915 C163.327,18.6545 163.327,19.6815 163.662,20.1585 C164.072,20.8495 165.378,21.0035 166.137,21.0035 C170.394,21.0035 173.581,18.4795 175.802,15.3535 L176.719,15.7425 L174.111,22.1365 Z" id="Fill-11"></path>
                <path d="M181.8195,6.3489 C181.8195,4.3659 181.9465,2.8069 179.4415,2.5899 L179.0525,2.5899 L179.0525,1.6849 L187.8415,1.6849 L187.8415,2.5899 L187.4465,2.5899 C184.9485,2.8069 185.0755,4.3659 185.0755,6.3489 L185.0755,17.4529 C185.0755,19.4449 184.8505,21.0039 187.3505,21.2099 L187.8415,21.2409 L187.8415,22.1369 L179.0525,22.1369 L179.0525,21.2409 L179.5325,21.2099 C182.0465,21.0039 181.8195,19.4449 181.8195,17.4529 L181.8195,6.3489 Z" id="Fill-13"></path>
                <path d="M212.3683,8.0896 L211.1323,8.4116 C209.2093,5.6226 206.4783,2.6836 202.5663,2.6836 C197.3223,2.6836 195.4313,7.8486 195.4313,11.8666 C195.4313,13.9716 195.8593,16.1316 197.0663,17.9426 C198.3973,19.8886 200.6063,21.1466 203.1203,21.1466 C206.3443,21.1466 209.6713,19.5346 209.6713,16.1936 C209.6713,14.1276 208.5903,13.5216 206.5113,13.3136 L206.5113,12.4116 L215.4323,12.4116 L215.4323,13.3136 L215.1613,13.3386 C214.3573,13.4016 213.4493,13.5476 213.0243,14.3046 C212.6273,15.0236 212.6913,16.3136 212.6913,17.1276 L212.6913,22.1366 L211.1323,22.1366 L210.1173,20.0686 C208.0763,21.7146 205.5313,22.6486 202.8293,22.6486 C196.1613,22.6486 191.5283,17.8786 191.5283,11.8666 C191.5283,9.1766 192.3753,6.6166 194.3223,4.5786 C196.3133,2.5356 199.3423,1.1836 202.3443,1.1836 C204.5523,1.1836 207.0063,1.9026 208.7513,3.1316 L209.3753,1.6846 L210.3883,1.6846 L212.3683,8.0896 Z" id="Fill-15"></path>
                <path d="M69.9704,36.6765 C71.6154,36.6765 73.0444,36.5825 74.2194,35.4145 C75.2214,34.4185 75.5204,33.3135 75.5204,31.9905 C75.5204,30.6975 75.0264,29.4055 74.0004,28.5355 C72.9504,27.6935 71.4254,27.4535 70.0884,27.4535 C69.2334,27.4535 67.1144,27.5455 66.4354,28.0235 C65.9074,28.3605 65.9674,29.3225 65.9674,29.8315 L65.9674,36.6765 L69.9704,36.6765 Z M65.9674,42.0215 C65.9674,42.8335 65.9074,44.0355 66.2734,44.7535 C66.7274,45.6845 67.7664,45.7405 68.7134,45.7995 L69.3654,45.8355 L69.3654,46.7295 L59.8524,46.7295 L59.8524,45.8355 L60.1464,45.7995 C61.0234,45.7405 61.9284,45.6215 62.3674,44.8455 C62.7514,44.1285 62.7204,42.8335 62.7204,42.0215 L62.7204,30.9675 C62.7204,28.9845 62.9404,27.3995 60.3124,27.2175 L59.8524,27.1835 L59.8524,26.2765 L70.5034,26.2765 C72.3904,26.2765 74.3104,26.4635 75.9744,27.3635 C77.7604,28.3605 78.8084,30.0335 78.8084,31.9645 C78.8084,33.7055 77.9634,35.3885 76.4274,36.4365 C74.7984,37.5755 72.4604,37.7885 70.4774,37.7885 L65.9674,37.7885 L65.9674,42.0215 Z" id="Fill-17"></path>
                <path d="M84.8996,30.9671 C84.8996,28.9841 85.1296,27.4001 82.4866,27.2171 L82.0026,27.1831 L82.0026,26.2771 L91.1876,26.2771 L91.1876,27.1831 L90.8226,27.1831 C89.9206,27.2481 88.9696,27.3371 88.5166,28.1771 C88.1206,28.8921 88.1526,30.1881 88.1526,30.9991 L88.1526,35.1101 L99.8416,35.1101 L99.8416,30.9991 C99.8416,28.9841 100.0696,27.4001 97.3946,27.2171 L96.9146,27.1831 L96.9146,26.2771 L106.0306,26.2771 L106.0306,27.1831 L105.7096,27.1831 C104.8236,27.2781 103.8786,27.3641 103.4586,28.1771 C103.0446,28.8921 103.1046,30.1881 103.1046,30.9671 L103.1046,42.0481 C103.1046,44.0351 102.8786,45.6211 105.5546,45.8001 L106.0306,45.8351 L106.0306,46.7301 L96.9146,46.7301 L96.9146,45.8351 L97.2336,45.8351 C98.1206,45.7681 99.0306,45.6511 99.4836,44.8451 C99.8786,44.1281 99.8416,42.8331 99.8416,42.0481 L99.8416,36.3751 L88.1526,36.3751 L88.1526,42.0481 C88.1526,44.0621 87.9506,45.6211 90.6236,45.8001 L91.1876,45.8351 L91.1876,46.7301 L82.0026,46.7301 L82.0026,45.8351 L82.3276,45.8351 C83.2086,45.7401 84.1136,45.6511 84.5786,44.8451 C84.9676,44.1281 84.8996,42.8331 84.8996,42.0481 L84.8996,30.9671 Z" id="Fill-19"></path>
                <path d="M123.0929,37.7888 L119.3809,28.8698 L115.7709,37.7888 L123.0929,37.7888 Z M128.3689,42.0478 C129.1909,43.9108 129.6669,45.7098 132.2509,45.8348 L132.2509,46.7298 L123.0929,46.7298 L123.0929,45.8348 C124.1739,45.7098 125.6379,45.4998 125.6379,44.3298 C125.6379,43.8158 125.3479,43.1318 125.1559,42.6808 L123.6819,39.1378 L115.3109,39.1378 L114.3999,41.3908 C114.1339,42.0208 113.6629,43.1888 113.6629,43.8858 C113.6629,45.3758 114.9529,45.6848 116.5189,45.8348 L116.5189,46.7298 L107.7829,46.7298 L107.7829,45.8348 L108.1509,45.7678 C109.7119,45.4438 110.2579,45.0848 111.0839,43.7648 C111.8189,42.5358 112.6349,40.5188 113.1959,39.1598 L118.6419,26.2768 L121.6659,26.2768 L128.3689,42.0478 Z" id="Fill-21"></path>
                <path d="M145.3761,35.803 C146.8311,35.803 148.3011,35.774 149.5731,34.965 C150.8101,34.183 151.4321,32.89 151.4321,31.512 C151.4321,28.117 148.1731,27.425 145.1361,27.425 C144.1981,27.425 142.1491,27.513 141.3031,27.959 C140.5171,28.391 140.4871,28.892 140.4871,29.648 L140.4871,35.803 L145.3761,35.803 Z M154.0741,43.576 C155.0811,44.874 156.0221,45.563 157.7531,45.835 L157.7531,46.73 L152.3031,46.73 L145.0561,37.07 L140.4871,37.07 L140.4871,42.021 C140.4871,44.093 140.2881,45.651 143.0261,45.835 L143.7121,45.835 L143.7121,46.73 L134.1051,46.73 L134.1051,45.835 L134.5291,45.8 C135.4391,45.741 136.4101,45.685 136.9111,44.845 C137.2871,44.128 137.2341,42.833 137.2341,42.021 L137.2341,30.967 C137.2341,28.892 137.4591,27.364 134.7241,27.217 L134.1051,27.183 L134.1051,26.277 L147.0631,26.277 C150.8101,26.277 154.8521,27.337 154.8521,31.536 C154.8521,34.668 151.9761,36.53 148.8621,36.79 L154.0741,43.576 Z" id="Fill-23"></path>
                <path d="M171.8454,46.7298 L164.2334,27.8748 L164.2334,42.0478 C164.2334,42.8338 164.2654,44.0618 164.5944,44.7528 C165.0504,45.6848 166.0584,45.7688 166.9964,45.7998 L167.5834,45.8348 L167.5834,46.7298 L159.3484,46.7298 L159.3484,45.8348 L159.6974,45.8348 C160.6174,45.7688 161.5954,45.6848 162.0514,44.8458 C162.4684,44.1528 162.3994,42.8338 162.3994,42.0478 L162.3994,30.9668 C162.3994,28.9568 162.6054,27.3638 159.9044,27.2168 L159.3484,27.1838 L159.3484,26.2768 L167.1264,26.2768 L173.3484,41.6878 L180.2274,26.2768 L187.6164,26.2768 L187.6164,27.1838 L187.2964,27.1838 C186.4084,27.2778 185.5004,27.3638 185.0484,28.1768 C184.6264,28.8928 184.6884,30.1878 184.6884,30.9668 L184.6884,42.0478 C184.6884,44.0358 184.4584,45.6218 187.1314,45.7998 L187.6164,45.8348 L187.6164,46.7298 L178.5964,46.7298 L178.5964,45.8348 L178.8884,45.8348 C179.7304,45.7408 180.6384,45.6508 181.0584,44.8458 C181.5014,44.1278 181.4314,42.8338 181.4314,42.0478 L181.4314,28.4158 L173.2524,46.7298 L171.8454,46.7298 Z" id="Fill-25"></path>
                <path d="M204.5236,37.7888 L200.8096,28.8698 L197.1896,37.7888 L204.5236,37.7888 Z M209.7976,42.0478 C210.6126,43.9108 211.0986,45.7098 213.6766,45.8348 L213.6766,46.7298 L204.5236,46.7298 L204.5236,45.8348 C205.5936,45.7098 207.0586,45.4998 207.0586,44.3298 C207.0586,43.8158 206.7696,43.1318 206.5726,42.6808 L205.1056,39.1378 L196.7326,39.1378 L195.8286,41.3908 C195.5676,42.0208 195.0736,43.1888 195.0736,43.8858 C195.0736,45.3758 196.3746,45.6848 197.9446,45.8348 L197.9446,46.7298 L189.2136,46.7298 L189.2136,45.8348 L189.5766,45.7678 C191.1316,45.4438 191.6856,45.0848 192.4966,43.7648 C193.2526,42.5358 194.0626,40.5188 194.6236,39.1598 L200.0616,26.2768 L203.0916,26.2768 L209.7976,42.0478 Z" id="Fill-27"></path>
            </g>
        </g>
    </g>
</svg>